<?xml version="1.0" encoding="UTF-8"?>
<svg id="Camada_2" data-name="Camada 2" xmlns="http://www.w3.org/2000/svg" viewBox="0 0 177.53 194.55">
  <defs>
    <style>
      .cls-1 {
        fill: #f7b2d1;
      }
    </style>
  </defs>
  <g id="Camada_1-2" data-name="Camada 1">
    <g>
      <g>
        <path class="cls-1" d="M123.84,152.75s0,.01-.01.01t.02,0h-.01Z"/>
        <path class="cls-1" d="M161.62,76.54c-.05-6.11,1.25-13.08.91-19.1-.24-4.35-1.77-8.85-1.63-13.7.26-9.37,6.21-17.59-3.29-24.18-2.34-1.63-5.19-2.75-8.07-2.08-.26-.34,1.92-7.64,2.3-8.4.43-.85,1.27-.94,1.41-1.35.05-.16.22-2.72.15-2.84-.59-.39-1.65-.37-2.26-.08-.57.27-.51.9-1.22,1-1.53.23-6.93.28-8.65.19-4.11-.21-9.11-1.8-13.28-2.51C104.46-.5,81.61,1.57,58.02.38c-1.99-.1-4.46-.95-6.4.26-1.53.95-4.9,5.33-6.43,6.96-3.56,3.79-6.66,7.17-9.94,11.27-.84,1.05-2.49,3.53-.89,4.27-1.71,3.65-3.4,7.44-3.86,11.5-1.41,12.42-.27,24.4-.5,36.7-.19,10.51.63,21.32-.56,31.74-.07.61-.61.9-.54,1.49.57,4.53,8.44,3.2,11.4,4.26-2.06,1.94-4.7,3.56-6.79,5.39-.93.82-2.31,2.05-3.18,2.93-2.42,2.45-4.4,5.98-7.44,7.66-.78,6.67-.71,13.03-.31,19.7.08,1.31-.43,2.75.18,3.98.62.7,4.49-.27,3.46-1.76l-1.49-.32c.51-3.28,1.56-6.47,1.56-9.82-.01-3.02-1.03-6.05-1.01-9.08,2.76.32,5.49-.31,8.24-.47,7.2-.42,14.33-.41,21.46-.72,5.2-.22,10.35.92,15.53,1.26,8.42.54,17.14.59,25.55,1.09,8.22.5,17,2.08,25.21,1.34,1.62-.15,3.36-1.1,5.24-.54.26-.66-1.18-.93-1.61-1.05-6.68-1.95-15.13-.51-22.04-1.95-23.42,1.23-46.72-2.02-70.08-1.98-2.08,0-4.6.76-6.52-.14,4.86-5.47,10.92-9.76,15.36-15.61,3.48.02,6.9.7,10.32,1.3.1.49-.23.55-.45.81-1.91,2.27-4.58,4.29-6.68,6.39l-.68,5.81c7.28.39,14.56-.22,21.84.4,5.94.5,10.51,1.23,16.62,1.29,7.02.07,13.9.48,20.86.71,2.41.08,4.15-.12,6.54-.18.33,0,.55.34.68.33,1.45-.07,9.43-8.03,10.86-9.58.56-.6,2.81-3.71,3.03-3.82,1.43-.74,5.34.23,7.08-1.14,1.06-.83,3.11-4.4,4.3-5.8,2.26-2.65,5.15-5.2,7.57-7.74l10.41-.28,5.8-1.24c-2.21,1.6-4.29,2.9-6.21,4.88-5.89,6.08-11.37,13.53-17.29,19.84-1.77,1.89-7.1,6.13-7.48,8.42-.84,5.13.33,11.43.12,16.7-.03.81-.49,5.36-.8,5.57-2.14-.03-4.44-.9-6.5-1.02-10.53-.62-21.17-.04-31.73-.54-18.32-.85-37.54-3.39-55.85-1.92-1.59.13-3.4-.72-4.62.78.81.87,1.93.22,2.66.28,13.55,1.13,27.6.91,41.38,1.78,16.81,1.07,33.57,1.35,50.43,1.99.01,0,.01-.01.01-.01h.01c.13.01.26.02.39.02,1.62.06,3.9-.73,5.27.2,1.31-1.22.59-2.9.61-4.28.07-4.37.04-8.73.05-13.12v-.52c.01-1.32-.63-5.06-.16-5.98,2.64-2.84,5.72-5.2,8.43-7.98,3.86-3.97,7.59-8.24,11.39-12.3,3.42-3.64,6.61-7.5,10.23-10.96.21,3.66.12,7.33.21,11,.05,2.17.63,4.45.19,6.62-.63,3.09-7.35,9.78-9.79,12.31-3.44,3.53-16.64,15.44-17.41,19.43-.08.44-.22.74.37.69,1.34-.11,2.57-2.27,3.48-3.19,8.66-8.83,18.83-17.62,24.99-28.32l.39-21.04c-.25-.88-4.43-.98-5.34-.97-3.14.05-4.83.15-8.07-.1-.83-.06-1.59.25-2.37.06,4.45-4.54,8.26-9.63,12.34-14.48.99-1.18,2.19-1.52,2.57-3.3ZM43.25,13.63c1.37-1.48,3.2-2.8,4.64-4.24,1.13-1.13,4.02-5.06,5.26-5.33,2.68-.58,7.19.72,10.26.73,17.43.04,36.71-1.4,53.98.14,7.03.64,14.37,2.65,21.28,3.18,3.56.27,6.45-.73,9.92-.69-2.74,2.4-4.34,5.8-6.78,8.46-1.04,1.14-2.42,2.07-3.46,3.21-1.55,1.68-2.71,3.7-4.07,5.52-1.83-.36-3.75.18-5.52.04-4.45-.33-9.89-2.28-14.62-2.88-14.21-1.79-28.49.21-42.85-.49-.65-.03-1.25-.35-1.91-.39-10.63-.5-21.29-1.27-31.88,0,2.09-2.25,3.67-5.02,5.75-7.26ZM104.37,122.48c-13.65-.95-28.18,1.62-41.91-1.41l-16.56-.44.1-2.23,12.9,1.16c4.05-.29,8.16-.11,12.24-.05,10.01.14,18.99,1.45,28.84,2.12,3.3.23,6.62.24,9.9-.13l.16,2.79c-1.69-1.41-3.53-1.67-5.67-1.81ZM109.85,119.57c-1.43.74-7.6.28-9.5.13-15.91-1.26-33.01-3.07-48.87-2.45-1.32.05-2.71-.13-4.03-.03,2.4-2.06,4.63-4.42,5.93-7.35l9.73-.73c-.29,2.08,1.47,3.62,3.2,4.4,7.15,3.19,16.15.98,23.65,2.29,3.5-.54,7.66.25,11.08-.35,1.73-.3,4.69-2.81,5.54-4.39,1.26.38,3.74,1.8,4.93,1.85l5.14.23-6.8,6.4ZM110.91,123.49l-.11-3.02c.82-.65,2.27-1.67,3-2.4.97-.97,3.51-4.36,4.36-4.85.78-.45,2.34-.41,3.24-.39l-10.49,10.66ZM131.37,44.36c-.77,7.87-1.24,16.54-1.64,24.43-.68,13.4.68,26.87-.37,40.21-6.6-1.05-12.53.95-19.17-.98-15.55-4.52-31.42-3.78-47.55-3.62-3.17.03-6.22.4-9.21.43-2.92.02-5.69-.95-8.57-1.24-3.76-.38-7.76-.16-11.54-.5.26-1.88.68-4.07.83-5.93.3-3.82.43-8.99.27-12.8-.09-2.04-.77-4.11-.83-6.17-.14-4.48.46-9.41.32-13.89-.25-8.85-1.63-17.17-1.35-26.22.15-4.95.32-9.53,2.75-13.97,1.46-.2,2.97-.51,4.45-.61,11.52-.8,23.71.98,35.26,1.83,13.7,1.01,27.41-.52,41.09,1.57,5.67.86,11.65,3.5,17.36,1.56-.42,5.32-1.58,10.6-2.1,15.9ZM132.68,103.3c.06-5.42.2-10.85.15-16.27-.1-11.74.3-22.46.95-34.21.47-8.46,1.22-16.96,1.15-25.53,1.6-4.39,5.99-6.38,9.03-9.35,1.39-1.35,2.42-3.09,3.81-4.43-.08,1.8-1.71,4.72.13,6.15.82.64,4.34.51,6.03,1.41,1.23.65,5.12,4.42,5.48,5.64.96,3.19-.7,8.3-1.04,11.62-.76,7.32.2,11.83,1.05,18.76.71,5.77-.46,12.66-.2,18.57l-12.14,13.53-14.4,14.11Z"/>
        <path class="cls-1" d="M148.55,166.62c8.87-1.76,17.65.22,24.33,6.37,6.69,6.17,6.26,15.45-1.94,20-7.49,4.16-17.8-.79-23.56-5.99-4.29-3.88-5.96-7.07-5.59-13.02.23-3.79,3.1-4.9,5.61-6.99-3.4-4.18.98-5.71,4.71-5.64-2.97-1.84-7.85-.57-7.38,3.56.07.64.6,1.15.46,1.84-2.15-.38-2.1-3.75-1.3-5.35,2.01-4,6.9-2.96,10.34-1.8,2.85-3.94-.28-5.97-3.96-6.97s-8.36-.31-11.92.96c-2.28.81-4.41,2.13-6.63,3.1-.15.76.06.43.38.57,1.41.62,2,.3,2.25,2.21s-.82,9.41-1.63,10.96c-2.02,3.83-8.53,8.53-11.88,11.79-1.54,1.51-4.51,5.6-6.36,6.1-2.83.75-4.72.26-7.39.11-9.37-.51-18.71-.39-28.1-.68-11.24-.36-22.58-1.05-33.9-1.22-13.27-.19-26.79.53-40.02-1.19-1.14-.15-3.72.14-4.42-.48-1.2-1.06-.35-6.12-.21-7.79,4.13-5.59,7.62-11.65,11.57-17.35.97-1.4,4-5.86,5.21-6.54,1.77-1,7.41.48,9.86.57,5.45.2,10.98-.58,16.44-.67,11.4-.19,22.83,1.1,34.15,1.49,12.27.43,24.54-.23,36.67,1.64l13.11.03c4.79-7.71,23.64-10.82,30.27-5.36,2.06,1.7,3.96,5.36,2.78,7.98-1.8,3.98-6.86,3.67-10.43,4.33-2.71.5-2.01,1.06-1.52,3.42ZM156.33,160.29c.52.57,1.94-2.17,2.01-2.63.3-1.91-2.32-5.25-3.94-6.13-4.45-2.43-14-1.36-18.72.33-2.89,1.04-5.14,2.68-7.3,4.83,2.24.91,3.78-1.42,5.64-2.57,5.51-3.42,13.9-4.47,19.87-1.59,2.57,1.24,3.86,5.27,2.44,7.76ZM19.97,156.5l4.31.19c-.08-.51-.52-.54-.94-.61-1.38-.21-4.05-.62-5.28-.21-.3.1-.48.16-.74.35-2.19,1.6-5.26,7.19-6.96,9.57-2.8,3.92-5.7,7.78-8.43,11.76,1.97.48,3.94-.15,5.97.13,12.34,1.7,26.25.99,38.92,1.45,15.94.57,31.98,1.94,48.02,2.4,1.69.05,3.46-.14,5.01-.08,2.85.11,5.66.87,8.49.39h0c.47-.15.97-.19,1.46-.13l4.75.64,16.19-22.76c.28-.62-.86-.48-1.24-.48-3.2,0-7.19.56-10.3.42-4.18-.19-9.3-1.4-13.55-1.75-7.02-.57-13.96,0-20.89-.08-13.62-.14-27.17-2.08-40.83-1.79-3.1.06-6.68.6-9.78.67-3.08.07-6.23-.28-9.31-.13l71.66,2.9-.08,5.56-9.46,14.56c-3.55,0-7.11-.35-10.66-.44-13.12-.32-26.25-.87-39.47-1.18-6.6-.15-13.15-.53-19.71-.57-2.61-.02-5.16-.34-7.74-.67l-.32-.24c-.33-.51.36-3.31.67-3.96,1.13-2.31,3.88-6.37,5.38-8.68,1.58-2.43,3.71-4.52,4.86-7.22ZM95.67,159.84l-4.31-.19c-1.09-.05-2.16,1.95-2.22,2.96,1.23-.67,2.49.41,3.72.42,1.33.02,1.89-2.33,2.8-3.19ZM130.89,169.05l.29-6.67c0-.09.81-1.44-.1-.7-3.48,6.8-8.82,12.24-13.15,18.25-.98,1.36-2.97,3.68-2.09,5.29,5.66-4.79,9.71-11.09,15.05-16.17ZM63.99,158.72l-4.31-.19c-1.31-.06-2.78,1.24-3.04,2.51-.18.87.57.17.69.17l4.58.2,2.07-2.69ZM63.03,161.47l5.42.24,1.65-2.71c-1.88-.28-3.73.18-5.56-.13l-1.5,2.6ZM76.77,159.29l-5.69-.25-1.36,2.44c1.4-.32,4.96.91,5.85.14.26-.23,1.41-2.1,1.2-2.33ZM83.44,159.58l-5.69-.25-1.64,2.43,5.09.72,2.24-2.9ZM89.55,159.85l-5.56-.25-1.51,2.72,5.14.23c.27.01,2.21-2.43,1.93-2.7ZM32.05,160.38l4.58.2.81-2.75-4.89.19-.86,1.7.35.66ZM37.19,160.6l5.42.24,1.36-2.44c-3.25-.17-5.51-1.73-6.78,2.2ZM49.97,161.17l5.56.25,1.51-2.71c-.23-.18-5.49-.04-5.85.16-.32.17-1.48,2.03-1.22,2.31ZM50.08,158.67l-5.56-.25-.8,1.9c-.24.83.75.31,1.08.36,1.01.16,3.41.82,4.21.17l1.07-2.18ZM94.27,166.46c2.49-1.62,1.47-3.28,1.64-5.77-1.52,1.75-2.2,3.45-1.64,5.77ZM25.62,157.87l-5.28-.23-1.21,2.17c2.96-.13,5.24,1.71,6.49-1.94ZM31.45,158.12l-5.28-.23-.93,2.19,4.86.21c.67.03,1.4-1.52,1.35-2.17ZM61.05,162.21l-5.3.18-2.11,3.67c1.84.05,3.7.34,5.5-.1l1.9-3.75ZM60.04,166.34l5.42.24,2.52-3.65c.29-.85-2.01-.19-2.35-.21-1.2-.06-2.33-.71-3.69-.12l-1.9,3.75ZM74.66,162.81l-5.42-.24-2.27,4.07c1.82.11,3.69.25,5.46-.29l2.22-3.54ZM80.76,163.36c-1.65-.45-3.38-.48-5.08-.46l-2.58,3.73,6.08-.05,1.58-3.22ZM87.17,163.36l-4.31-.19c-1.39-.06-2,2.49-2.79,3.36,1.73.49,3.55.11,5.29-.04l1.8-3.13ZM86.47,166.4l4.58.2,1.65-2.71c-1.19,0-3.58-.96-4.58-.2-.17.13-1.78,2.61-1.65,2.71ZM22.84,164.15l4.58.2,2.21-2.83c-1.68-.63-3.51-.28-5.28-.23l-1.51,2.86ZM35.76,161.38l-5-.22-1.81,3.26,4.86.21c.4-.32,2.19-3.02,1.95-3.25ZM41.87,161.64l-5.28-.23-1.54,3.27,4.86.21c.49-.36,2.29-2.89,1.95-3.25ZM48.26,161.93l-5.14-.23-1.96,3.53,4.86.21,2.24-3.52ZM54.65,162.21l-5.56-.25-1.83,3.54c1.3-.13,4.42,1.06,5.42.25.16-.13,2.11-3.39,1.96-3.54ZM16.45,163.86l4.86.21,1.93-2.7-4.58-.5c-.45.02-2.35,2.85-2.21,2.99ZM91.58,170.52c.47-.39,1.81-2.24,1.92-2.66.17-.67-.27-2.25,0-3.1-1.95,1.44-1.93,3.56-1.92,5.76ZM159.04,168.21l-5.12-.5-3.23.69c1.31-.35,4.31,1.6,5.08,1.61.16,0,2.63-1.03,2.89-1.18.3-.17.49.03.38-.61ZM163.08,169.02c-.39.02-4.77,2.09-5.44,2.46-2.23,1.21-7.4,4.84-7.93,7.38-.28,1.35,2.53,3.33,3.58,4.07,5.36,3.77,13.52,6.63,19.45,2.42.62-.44,2.29-2.51,2.32-3.16.06-1.29-1.25-5.28-2.03-6.39s-7.18-5.85-8.48-6.36c-.4-.16-1.07-.44-1.47-.41ZM154.48,170.51c-3.9-.29-7.49-2.46-10.06,1.87.25.57.47,1.16.77,1.71.22.41,2.63,4.11,3.13,3.67.23-1.06,1.1-2.28,1.82-3.11,1.12-1.3,2.79-2.21,3.9-3.31.27-.26.53-.37.44-.82ZM90.04,167.67l-4.18-.05-2.37,3.37c.28.23,4.46.11,5.01-.2.34-.19,1.75-2.89,1.54-3.13ZM84.76,167.43c-3.24.66-5.14-1.3-6.84,2.28-.16.34-.32.62-.26,1.02l5.24.19,1.87-3.49ZM78.36,167.43l-5.66.02-1.41,2.45c3.56.09,5.61,1.87,7.06-2.47ZM26.66,165.71c-1.52-.71-2.97.3-4.55-.44l-1.4,2.67,4.25.43,1.7-2.67ZM39.16,166.26l-4.8-.45-1.99,2.93,5.39-.08,1.4-2.4ZM70.97,167.66c-1.57.01-3.15-.2-4.72-.21l-1.63,2.15c.26.21,5.09.31,5.56.11.27-.11,2.1-2.51,1.11-2.28-.15.04-.25.23-.33.23ZM20.83,165.45l-5.56-.25-.93,2.18c3.05-.22,5.22,1.92,6.49-1.94ZM33.05,165.99l-4.86-.21c-.77.67-1.38,1.72-1.65,2.71l4.58.2,1.93-2.7ZM45.55,166.54l-5.14-.23c-.33-.01-1.54,1.91-1.36,2.44,3.15.54,5.15,1.33,6.5-2.22ZM51.65,167.09l-5.08-.51-1.42,2.73c2.96-.84,5.25,1.82,6.5-2.22ZM65,167.4l-5.65.02-1.13,2.18,5.38-.09,1.39-2.12ZM90.56,168.53c-.75,1.71-2.07,3.62-.94,5.52l1.35-2.32-.4-3.19ZM58.32,167.38l-5.42-.24-1.34,2.04c-.19.57.3.43.68.45,1.46.05,3.26-.38,4.83-.12l1.25-2.13ZM18.72,168.98c-1.58-.05-3.82-.87-5.34-.23-.19.08-2.46,3.1-2.31,3.22,1.58-.51,4.26.67,5.56.11.26-.11,2.22-2.99,2.08-3.11ZM56.23,173.69l5.14.23c.23-1.2.71-2.22,1.53-3.14l-5.57.03-1.37,2.3.27.58ZM69.57,170.94l-5.42-.24-2.23,3.24,5.69.55.45-.16,1.51-3.39ZM75.55,171.2l-5.14-.23-1.8,3.13c-.1.56,0,.36.39.43.46.08,4.93-.08,5.16-.19l1.65-2.57-.26-.56ZM81.09,174.79l5,.22c.24-1.16,1.77-2.11,1.67-3.27l-4.89.48-1.78,2.56ZM24.55,169.51l-4.52-.45-2,3.22,4.99.38,1.53-3.15ZM37.05,170.06c-1.74-.64-3.65.06-5.51-.2l-1.59,3.5c1.66-.61,3.49.65,5.29.1l1.81-3.4ZM42.75,173.37l5.14.23,1.66-2.99c-1.76-.52-3.51-.52-5.29-.1l-1.51,2.86ZM56.23,170.63l-5.28-.12c-.29.54-1.92,2.7-1.53,3.15l5.3-.18,1.51-2.86ZM74.98,174.52l5.14.23,1.93-2.7c-1.3.32-4.57-.88-5.41-.24-.65.49-1.04,2.06-1.65,2.71ZM30.66,169.78l-4.97-.19-1.58,3.52,4.73.07,1.81-3.4ZM43.16,170.33l-4.86-.21-1.95,3.25,4.86.21,1.95-3.25ZM87.07,178.11c1.11-1.95,1.93-3.06,1.63-5.49l-2.07,2.85.44,2.64ZM175.26,185.34c-4.9,4.2-11.83,4.3-17.61,1.86-5.3-2.24-10.83-5.61-14.01-10.49-.27,2.22.77,4.23,2.24,5.81,5,5.33,10.74,9.62,18.37,9.57,4.01-.03,10.85-1.84,11.01-6.75ZM54.67,174.45l-6.13.29-.1,2.22c2.12.22,4.25.8,6.38.25l-.14-2.77ZM55.38,177.27l5.56.25.37-2.48c-1.9-.55-3.88-.36-5.8-.55l-.13,2.78ZM61.77,177.55l5.14.23c.11,0,.38.53.67-.14l.14-2.33c-1.84.13-3.64-.32-5.41-.52-.86-.1-.32,2.16-.54,2.76ZM79.9,175.89l-5.24-.27.02,2.52,4.9.08.33-2.33ZM86.04,175.85l-5.56.02.02,2.25c.24.38,4.8.63,5.69.79l-.16-3.05ZM74.1,175.59l-4.86-.21c-.08,0-.97.29-1.01.41l-.09,2.33,5.83.26.12-2.78ZM16.03,173.31l-5.56-.25-.39,2.49c1.99-.17,3.87.83,5.81.23l.14-2.47ZM22,173.57c-1.22-.25-3.36-.15-4.72-.21-.69-.03-.2,2.32-.12,2.78,1.78-.53,3.6-.46,5.44-.32l.09-1.76c-.03-.17-.55-.47-.68-.5ZM41.48,176.94l-.16-2.39-5.03-.07-.11,2.5c.3.12.62-.25.7-.25l4.58.2ZM47.7,174.71l-5.56-.25c.04.84-.39,1.89.31,2.52l5,.22c.68.03.45-2.06.25-2.49ZM29.08,174.16l-5.57.03c0,.8-.39,1.75.61,1.98.38.09,4.18.5,4.39.44.79-.22.46-1.8.57-2.45ZM29.94,176.71l5.42.24.11-2.5c-2.06.37-3.8-.2-5.83-.26.02.6-.34,2.29.31,2.52ZM113.82,183.75c-4.96.52-9.93-.01-14.9-.11-19.89-.4-39.73-2.12-59.71-2.62-1.3-.03-3.18.43-4.47.38-6.91-.26-14.15-1.51-21.11-1.24-3.05.12-3.47.32-6.67,0-1.67-.17-3.37.05-4.98-.51l-.28,3.05c3.01-.79,6,.61,9.03.69,11.13.27,22.31.16,33.36.34,12.3.2,24.39,1.71,36.68,1.92,8.76.15,18.28-.55,26.97.35,1.84.19,4,.84,5.78,1.37l.3-3.61Z"/>
        <path class="cls-1" d="M79.87,133.12c.26-.72,3.73-.19,4.61-.2,8.92-.14,18.04.43,26.92,1.19,1.92.16,3.88.1,5.8.23.6.17.44,3.4.15,3.92-.85,1.53-8.08.56-9.72.51-7.46-.22-14.82-.68-22.29-.82-1.71-.03-4.16.71-5.68-.38l.2-4.44Z"/>
        <path class="cls-1" d="M27.27,139.29l.7-9.57c.17-.88,2.4-.86,3.22-.84,8.55.14,17.39,1.27,26.13,1.45,3.33.07,6.82.45,10,.44,1.73,0,7.36-.94,8.48-.05,1.05.84.71,6.64.42,8.02-.22,1.05-.7,1.93-1.85,2.06-4.75.53-11.17-1-16.11-.7l-16.4.13-14.58-.93ZM74.61,132.47c-6.19.51-12.3-.76-18.48-.83-2.96-.03-5.95.35-8.92.19-5.14-.28-10.36-1.26-15.51-1.48-.86-.04-1.96.36-2.93.09-.11,1.52-.07,3.07-.19,4.6-.05.67-.39,1.3-.4,1.92-.02,1.56,1.09.75,2.07.77,5.17.1,10.56,1.03,15.78,1.16,7.43.19,14.9-.43,22.31-.32,2.02.03,4.02.45,5.99.28l.28-6.39Z"/>
        <path class="cls-1" d="M126.92,132.83l-.24,5.42c-1.44.72-4.19.93-5.57.03l.22-5s.68-.67.73-.66l4.86.21ZM126.04,133.91l-3.6-.44-.44,3.46.44.67,3.43.19.17-3.89Z"/>
        <path class="cls-1" d="M122.56,141.32c3.24-.83,6.43,3.07,2.75,5.03-3.26,1.74-5.22-2.18-3.36-4.54.19-.24.29-.41.61-.49ZM123.36,142.47c-2.11.33-.37,3.01.3,2.98.47-.02,2.26-1.06,2.19-1.63-.58-.9-1.35-1.53-2.49-1.35Z"/>
        <path class="cls-1" d="M44.08,35.94l-1.38-.52c-.59-2.91,2.86-3.78,5.08-3.74,7.72.15,15.54.67,23.31.72,15.11.1,29.07-.43,44.22,1.11,1.77.18,5.03.51,6.32,1.68,1.14,1.04,1.46,3.99,1.53,5.53.29,6.8-1.62,13.48-1.99,20.2-.56,10.09,1.22,25.58-1.6,34.92-1.17,3.88-1.73,2.1-4.58,2.27-1.65.1-3.55,1.15-5.3,1.49-5.74,1.13-11.8-.37-17.57-.88-2.95-.26-5.96-.08-8.9-.38-5.61-.57-11.78-2.15-17.42-2.45-5.88-.31-12.08,1.15-17.86,1.19-3.73.02-8.79-.46-8.84-5.26-.04-3.9,1.39-9.43,1.74-13.56.65-7.8-.46-15.29.15-22.84.28-3.43.82-7.06,1.34-10.47.46-3,1.28-6,1.75-9ZM120.8,38.21c-4.28-.49-8.63-.47-12.92-.84-12.56-1.06-23.6-.8-36.14-.77-5.64.01-11.36.17-16.97.1-2.5-.03-4.94-.19-7.33-.88-1.5,9.04-3.42,18.04-3.46,27.27-.04,8.71-.69,16.36-1.08,25-.06,1.25-.44,2.6-.16,3.99,1.06.19,2.04.71,3.14.74,4.86.13,10.4-1.23,15.37-1.29,14.74-.18,30.47,4.96,45.43,5.08,3.58.06,6.6-2.18,10.21-1.51.63-4.83.69-9.71.93-14.58.56-11.53.66-24.05,1.82-35.55.23-2.22.93-4.52,1.15-6.76Z"/>
        <path class="cls-1" d="M122.35,160.48l-.04,4.15-9.99,15.58c-.97.05-1.96.27-2.93.29-4.23.1-12.96-.08-16.97-.75-.3-.05-.64-.02-.83-.31-.47-2.74.67-4.93,2-7.17s3.16-4.77,4.67-6.83c.61-.83,4.24-5.8,4.67-5.97l17.38.61,2.04.39ZM107.48,163.43l5.69.25,2.2-2.69-1.23,2.73,4.03.18c.54.02.6.33,1.28-.36l1.79-2.85c-1.25,0-2.51-.19-3.76-.18-.76,0-1.4.35-1.94.35-2.01-.03-4.28-.51-6.35-.43l-1.71,3ZM100.81,163.13l5.14.23c1.16.05,1.9-2.16,2.77-2.8-1.91-.23-3.94.17-5.92-.13l-1.99,2.7ZM120.18,165.93c1.55-1.02,1.63-2.37,1.57-4.11-1.25,1.16-2.04,2.38-1.57,4.11ZM98.41,167.2l5.42.24c.31-.63,2.55-3.06,2.24-3.52-.21-.07-.35.26-.43.26l-5.28-.23c-.37.45-2.36,2.82-1.95,3.25ZM113.01,164.23l-6.36.04-1.85,3.21c2.08-.53,3.95.48,6.07.22l2.15-3.48ZM118.56,164.75l-4.58-.2c-.08,0-.3-.41-.55-.05l-1.96,3.27,5,.22,2.09-3.25ZM117.78,169.72c1.66-1.11,1.59-2.86,1.59-4.66l-1.73,2.64.14,2.02ZM103.09,168.24l-5.83-.26-1.83,3.54,5.42.24c.61-.19,2.45-3.32,2.24-3.52ZM110.04,168.55l-6.11-.27-1.55,3.55,5.42.24,2.24-3.52ZM109.05,172.12l4.44.2,2.1-3.52c-1.22.3-4-.66-4.88.06-.2.17-1.82,3.11-1.67,3.27ZM114.79,174.32c.49.64,2.36-3.07,2.4-3.64.03-.49-.28-1.03-.22-1.55-1.41,1.58-2.75,2.94-2.17,5.19ZM112.91,172.85l-4.83.11-1.98,2.93,5.25-.09,1.56-2.95ZM92.76,175.3l5.83.26,1.51-2.71c-1.29.01-4.75-1.03-5.7-.26l-1.65,2.71ZM107.06,172.87l-4.86-.21c-1.42-.06-2.22,1.81-2.77,2.94l5.69.25,1.94-2.98ZM112.11,178.38c1.95-1.17,2.3-3.03,2.17-5.19-1.59,1.2-2.39,3.2-2.17,5.19ZM111.33,176.69l-5.55.02-.27,2.5c.63.96,4.93-.2,5.98.53l-.16-3.05ZM98,176.37l-5.55-.24-.38,2.47,5.51.23.42-2.46ZM98.98,176.41c-.53-.02-.8,2.44-.12,2.78l5.83.26.41-.44-.15-2.2c-.48.2-1.03-.18-1.25-.19l-4.72-.21Z"/>
      </g>
      <g>
        <path class="cls-1" d="M92.45,68.5c-.17,3.92-3.82,5.67-11.14,5.34-4.93-.23-10.22-.92-10.62-6.26l-.03-.37,6.91.3.09.17c.49.95,1.72,1.43,3.86,1.53,2.36.1,3.9-.3,3.93-1.02,0,0-.05-.2-.96-.39-.73-.15-1.72-.25-3.03-.37h-.03c-4.52-.43-10.7-1.02-10.5-5.21.1-2.18,1.32-3.71,3.64-4.57,1.82-.67,4.27-.93,7.5-.79,5.16.26,10.23.96,10.63,6.28l.03.37-6.91-.3-.09-.17c-.49-.96-1.68-1.43-3.86-1.52-2.43-.11-3.9.27-3.93,1.02,0,0,.05.19.96.38.76.16,1.87.26,3.04.36h.03c4.52.43,10.7,1.02,10.5,5.22Z"/>
        <path class="cls-1" d="M82.17,54.32c15.95.7,28.67,6.22,28.4,12.31-.27,6.1-13.42,10.47-29.37,9.76-15.95-.7-28.67-6.22-28.4-12.31.27-6.1,13.42-10.47,29.37-9.76M82.27,52.03c-7.99-.35-15.59.52-21.39,2.45-2.97.99-5.35,2.21-7.08,3.64-1.43,1.19-3.17,3.16-3.29,5.86s1.44,4.82,2.76,6.13c1.6,1.58,3.86,3.01,6.73,4.25,5.61,2.43,13.11,3.97,21.09,4.32,7.99.35,15.59-.52,21.39-2.45,2.97-.99,5.35-2.21,7.08-3.64,1.43-1.19,3.17-3.16,3.29-5.86.12-2.7-1.44-4.82-2.76-6.13-1.6-1.58-3.86-3.01-6.73-4.25-5.61-2.43-13.11-3.97-21.09-4.32h0Z"/>
      </g>
    </g>
  </g>
</svg>