<?xml version="1.0" encoding="UTF-8"?>
<svg id="Camada_2" data-name="Camada 2" xmlns="http://www.w3.org/2000/svg" viewBox="0 0 375.83 351.38">
  <g id="Camada_1-2" data-name="Camada 1">
    <g>
      <path d="M347.21,215.61c0,54.54-46.88,82.54-143.24,85.37,19.34-12.75,38.53-27.58,56.93-44.15,27.51-24.74,51.36-51.6,70.14-78.67,10.17,9.3,16.23,21.46,16.18,37.45Z"/>
      <path d="M360.77,20.16c-19.78-22-56.48-26.15-103.32-11.67-23,7.1-47.17,18.31-71.3,32.91-5.52,3.33-11.03,6.83-16.52,10.53-38.9,1.19-69.12,6.49-92,16.11-33.48,14.05-50.41,37.41-50.41,69.39-.06,16.05,6.09,28.23,16.36,37.53-12,17.51-21.88,35.12-29.25,52.28-19.34,45.04-19.09,81.97.72,103.98,12.03,13.39,30.32,20.17,53.35,20.17,14.83,0,31.63-2.82,49.99-8.51,27.54-8.49,56.76-22.88,85.59-41.9-3.9.12-7.85.21-11.92.24-45.31,28.4-89.48,44.02-123.45,44.02-20.8,0-37.79-5.85-48.91-18.22-21.09-23.43-16.66-65.45,7.34-112.45l.21,1.61c9.38,78.2,87.48,84.88,159.96,85.05,1.62,0,3.26,0,4.86-.01,21.62-13.53,43.5-29.98,64.66-49.03,27.32-24.57,50.95-51.2,69.5-78.02-30.82-23-89.73-25.99-136.48-28.33l-.42-.04c-17.23-.82-33.52-1.58-44.77-3.39-13.49-2.12-14.32-4.91-14.32-4.94,0-10.96,21.3-17.5,56.98-17.5,32.08,0,49.85,6.12,57.62,19.85l1.37,2.44h99.65c-5.67,10.59-12.25,21.27-19.63,31.9,1.71,1.28,3.32,2.61,4.83,4,12.57-18.11,22.87-36.27,30.47-54,19.34-45.05,19.09-81.97-.74-104ZM184.7,207.09h.4c19.41.92,33.98,1.73,44.76,3.48,13.5,2.16,14.35,4.99,14.35,5.04,0,10.61-22.38,17.51-57.01,17.51-31.48,0-49.81-6.31-57.63-19.9l-1.39-2.4H28.99c5.55-10.45,12.04-21.13,19.42-31.9,30.86,22.81,89.64,25.79,136.29,28.17ZM355.77,121.68c-2.48,5.8-5.24,11.63-8.31,17.51l-.28-2.3c-9.25-77.75-84.09-84.73-159.99-85.22-1.97,0-3.91,0-5.85.04C255.3,4.66,326.54-8.55,356.13,24.35c18.08,20.09,17.95,54.65-.36,97.33Z"/>
    </g>
  </g>
</svg>
